<mxfile host="app.diagrams.net" modified="2024-06-21T13:47:06.943Z" agent="Mozilla/5.0 (Macintosh; Intel Mac OS X 10_15_7) AppleWebKit/537.36 (KHTML, like Gecko) Chrome/126.0.0.0 Safari/537.36" etag="udyUicutkQ7Fen3gBAN_" version="24.6.0" type="device">
  <diagram id="C5RBs43oDa-KdzZeNtuy" name="Page-1">
    <mxGraphModel dx="954" dy="640" grid="1" gridSize="10" guides="1" tooltips="1" connect="1" arrows="1" fold="1" page="1" pageScale="1" pageWidth="827" pageHeight="1169" math="0" shadow="0">
      <root>
        <mxCell id="WIyWlLk6GJQsqaUBKTNV-0" />
        <mxCell id="WIyWlLk6GJQsqaUBKTNV-1" parent="WIyWlLk6GJQsqaUBKTNV-0" />
        <mxCell id="oRzDZRCs-X7Da57FgZrh-3" style="edgeStyle=orthogonalEdgeStyle;rounded=0;orthogonalLoop=1;jettySize=auto;html=1;entryX=0.5;entryY=0;entryDx=0;entryDy=0;" edge="1" parent="WIyWlLk6GJQsqaUBKTNV-1" source="oRzDZRCs-X7Da57FgZrh-0" target="oRzDZRCs-X7Da57FgZrh-2">
          <mxGeometry relative="1" as="geometry" />
        </mxCell>
        <mxCell id="oRzDZRCs-X7Da57FgZrh-0" value="Start" style="ellipse;whiteSpace=wrap;html=1;" vertex="1" parent="WIyWlLk6GJQsqaUBKTNV-1">
          <mxGeometry x="330" y="70" width="80" height="50" as="geometry" />
        </mxCell>
        <mxCell id="oRzDZRCs-X7Da57FgZrh-1" value="End" style="ellipse;whiteSpace=wrap;html=1;" vertex="1" parent="WIyWlLk6GJQsqaUBKTNV-1">
          <mxGeometry x="330" y="630" width="80" height="50" as="geometry" />
        </mxCell>
        <mxCell id="oRzDZRCs-X7Da57FgZrh-5" style="edgeStyle=orthogonalEdgeStyle;rounded=0;orthogonalLoop=1;jettySize=auto;html=1;entryX=0.5;entryY=0;entryDx=0;entryDy=0;" edge="1" parent="WIyWlLk6GJQsqaUBKTNV-1" source="oRzDZRCs-X7Da57FgZrh-2" target="oRzDZRCs-X7Da57FgZrh-4">
          <mxGeometry relative="1" as="geometry" />
        </mxCell>
        <mxCell id="oRzDZRCs-X7Da57FgZrh-2" value="Input Nama&lt;div&gt;dan&lt;br&gt;Nilai Mahasiswa&lt;/div&gt;" style="shape=parallelogram;perimeter=parallelogramPerimeter;whiteSpace=wrap;html=1;fixedSize=1;" vertex="1" parent="WIyWlLk6GJQsqaUBKTNV-1">
          <mxGeometry x="310" y="150" width="120" height="60" as="geometry" />
        </mxCell>
        <mxCell id="oRzDZRCs-X7Da57FgZrh-8" style="edgeStyle=orthogonalEdgeStyle;rounded=0;orthogonalLoop=1;jettySize=auto;html=1;entryX=0.5;entryY=0;entryDx=0;entryDy=0;" edge="1" parent="WIyWlLk6GJQsqaUBKTNV-1" source="oRzDZRCs-X7Da57FgZrh-4" target="oRzDZRCs-X7Da57FgZrh-6">
          <mxGeometry relative="1" as="geometry" />
        </mxCell>
        <mxCell id="oRzDZRCs-X7Da57FgZrh-4" value="Simpan Nama dan Nilai Mahasiswa" style="rounded=0;whiteSpace=wrap;html=1;" vertex="1" parent="WIyWlLk6GJQsqaUBKTNV-1">
          <mxGeometry x="310" y="240" width="120" height="60" as="geometry" />
        </mxCell>
        <mxCell id="oRzDZRCs-X7Da57FgZrh-9" style="edgeStyle=orthogonalEdgeStyle;rounded=0;orthogonalLoop=1;jettySize=auto;html=1;entryX=0.5;entryY=0;entryDx=0;entryDy=0;" edge="1" parent="WIyWlLk6GJQsqaUBKTNV-1" source="oRzDZRCs-X7Da57FgZrh-6" target="oRzDZRCs-X7Da57FgZrh-7">
          <mxGeometry relative="1" as="geometry" />
        </mxCell>
        <mxCell id="oRzDZRCs-X7Da57FgZrh-12" style="edgeStyle=orthogonalEdgeStyle;rounded=0;orthogonalLoop=1;jettySize=auto;html=1;" edge="1" parent="WIyWlLk6GJQsqaUBKTNV-1" source="oRzDZRCs-X7Da57FgZrh-6" target="oRzDZRCs-X7Da57FgZrh-11">
          <mxGeometry relative="1" as="geometry" />
        </mxCell>
        <mxCell id="oRzDZRCs-X7Da57FgZrh-6" value="Jika Nilai &amp;gt;= 60" style="rhombus;whiteSpace=wrap;html=1;" vertex="1" parent="WIyWlLk6GJQsqaUBKTNV-1">
          <mxGeometry x="310" y="340" width="120" height="80" as="geometry" />
        </mxCell>
        <mxCell id="oRzDZRCs-X7Da57FgZrh-15" style="edgeStyle=orthogonalEdgeStyle;rounded=0;orthogonalLoop=1;jettySize=auto;html=1;entryX=0.5;entryY=0;entryDx=0;entryDy=0;" edge="1" parent="WIyWlLk6GJQsqaUBKTNV-1" source="oRzDZRCs-X7Da57FgZrh-7" target="oRzDZRCs-X7Da57FgZrh-14">
          <mxGeometry relative="1" as="geometry" />
        </mxCell>
        <mxCell id="oRzDZRCs-X7Da57FgZrh-7" value="Simpan Keterangan = Lulus" style="rounded=0;whiteSpace=wrap;html=1;" vertex="1" parent="WIyWlLk6GJQsqaUBKTNV-1">
          <mxGeometry x="310" y="460" width="120" height="60" as="geometry" />
        </mxCell>
        <mxCell id="oRzDZRCs-X7Da57FgZrh-10" value="True" style="text;html=1;align=center;verticalAlign=middle;whiteSpace=wrap;rounded=0;" vertex="1" parent="WIyWlLk6GJQsqaUBKTNV-1">
          <mxGeometry x="360" y="420" width="60" height="30" as="geometry" />
        </mxCell>
        <mxCell id="oRzDZRCs-X7Da57FgZrh-18" style="edgeStyle=orthogonalEdgeStyle;rounded=0;orthogonalLoop=1;jettySize=auto;html=1;entryX=1;entryY=0.5;entryDx=0;entryDy=0;" edge="1" parent="WIyWlLk6GJQsqaUBKTNV-1" source="oRzDZRCs-X7Da57FgZrh-11" target="oRzDZRCs-X7Da57FgZrh-14">
          <mxGeometry relative="1" as="geometry">
            <Array as="points">
              <mxPoint x="540" y="578" />
            </Array>
          </mxGeometry>
        </mxCell>
        <mxCell id="oRzDZRCs-X7Da57FgZrh-11" value="Simpan Keterangan = Tidak Lulus" style="rounded=0;whiteSpace=wrap;html=1;" vertex="1" parent="WIyWlLk6GJQsqaUBKTNV-1">
          <mxGeometry x="480" y="460" width="120" height="60" as="geometry" />
        </mxCell>
        <mxCell id="oRzDZRCs-X7Da57FgZrh-13" value="False" style="text;html=1;align=center;verticalAlign=middle;whiteSpace=wrap;rounded=0;" vertex="1" parent="WIyWlLk6GJQsqaUBKTNV-1">
          <mxGeometry x="450" y="350" width="60" height="30" as="geometry" />
        </mxCell>
        <mxCell id="oRzDZRCs-X7Da57FgZrh-17" style="edgeStyle=orthogonalEdgeStyle;rounded=0;orthogonalLoop=1;jettySize=auto;html=1;entryX=0.5;entryY=0;entryDx=0;entryDy=0;" edge="1" parent="WIyWlLk6GJQsqaUBKTNV-1" source="oRzDZRCs-X7Da57FgZrh-14" target="oRzDZRCs-X7Da57FgZrh-1">
          <mxGeometry relative="1" as="geometry" />
        </mxCell>
        <mxCell id="oRzDZRCs-X7Da57FgZrh-14" value="Output Nama dan Keterangan" style="shape=parallelogram;perimeter=parallelogramPerimeter;whiteSpace=wrap;html=1;fixedSize=1;" vertex="1" parent="WIyWlLk6GJQsqaUBKTNV-1">
          <mxGeometry x="300" y="555" width="140" height="45" as="geometry" />
        </mxCell>
      </root>
    </mxGraphModel>
  </diagram>
</mxfile>
